<?xml version="1.0" encoding="UTF-8" standalone="no"?>
<!-- Generator: Adobe Illustrator 19.2.1, SVG Export Plug-In . SVG Version: 6.00 Build 0)  -->

<svg
   xmlns:dc="http://purl.org/dc/elements/1.1/"
   xmlns:cc="http://creativecommons.org/ns#"
   xmlns:rdf="http://www.w3.org/1999/02/22-rdf-syntax-ns#"
   xmlns:svg="http://www.w3.org/2000/svg"
   xmlns="http://www.w3.org/2000/svg"
   xmlns:sodipodi="http://sodipodi.sourceforge.net/DTD/sodipodi-0.dtd"
   xmlns:inkscape="http://www.inkscape.org/namespaces/inkscape"
   version="1.1"
   id="Layer_1"
   x="0px"
   y="0px"
   viewBox="0 0 159.5081 65.699997"
   xml:space="preserve"
   inkscape:version="0.91 r13725"
   sodipodi:docname="logo-white.svg"
   width="159.5081"
   height="65.699997"><metadata
   id="metadata3498"><rdf:RDF><cc:Work
       rdf:about=""><dc:format>image/svg+xml</dc:format><dc:type
         rdf:resource="http://purl.org/dc/dcmitype/StillImage" /><dc:title></dc:title></cc:Work></rdf:RDF></metadata><defs
   id="defs3496" /><sodipodi:namedview
   pagecolor="#ffffff"
   bordercolor="#666666"
   borderopacity="1"
   objecttolerance="10"
   gridtolerance="10"
   guidetolerance="10"
   inkscape:pageopacity="0"
   inkscape:pageshadow="2"
   inkscape:window-width="1600"
   inkscape:window-height="837"
   id="namedview3494"
   showgrid="false"
   fit-margin-top="0"
   fit-margin-left="0"
   fit-margin-right="0"
   fit-margin-bottom="0"
   inkscape:zoom="3.740113"
   inkscape:cx="80.208104"
   inkscape:cy="56.8"
   inkscape:window-x="1592"
   inkscape:window-y="-8"
   inkscape:window-maximized="1"
   inkscape:current-layer="Layer_1" />
<style
   type="text/css"
   id="style3438">
	.st0{fill:#1B2139;}
	.st1{fill:#FFFFFF;}
</style>

<g
   id="g3442"
   transform="translate(-33.791896,-79.6)">
	<path
   class="st1"
   d="m 156.6,114.9 c 0.1,0 0.1,0 0,0 0,4 0,8.1 0.1,12.1 0.1,3.1 2,4.9 5.1,4.9 2,0 4,0 5.9,0 3.4,0 5.3,-1.7 5.4,-5.1 0.1,-8.1 0,-16.1 0.1,-24.2 0,-0.8 -0.3,-1.1 -1.1,-1.1 -1.2,0 -2.4,0.1 -3.6,0 -1.1,-0.1 -1.5,0.3 -1.5,1.5 0,7 0,14 0,21 0,3.1 0.5,2.7 -2.8,2.8 -1.1,0 -1.4,-0.4 -1.4,-1.5 0,-4.4 0,-8.8 0,-13.2 0,-3.1 0,-6.3 0,-9.4 0,-0.9 -0.3,-1.3 -1.2,-1.2 -1.1,0.1 -2.3,0.1 -3.4,0 -1.2,-0.1 -1.5,0.4 -1.4,1.5 -0.1,3.9 -0.2,7.9 -0.2,11.9 z"
   id="path3444"
   inkscape:connector-curvature="0"
   style="fill:#ffffff" />
	<path
   class="st1"
   d="m 137.6,116.6 c 0,0 0,0 0,0 0,0.9 0,1.8 0,2.7 0,2.7 -0.1,5.3 0.1,8 0.2,3 2.1,4.6 5.1,4.6 1.9,0 3.9,0 5.8,0 2.4,0 4.1,-1.2 4.6,-3.5 0.4,-1.8 0.3,-3.8 0.3,-5.7 0,-0.2 -0.5,-0.6 -0.8,-0.6 -1,-0.1 -2.1,0 -3.1,0 -2.4,0.2 -2.2,-0.1 -2.2,2.4 0,2.2 0.3,2.1 -2.1,2.1 -1.6,0 -1.6,0 -1.6,-1.7 0,-5.3 0,-10.5 0,-15.8 0,-2.7 0,-2.7 2.8,-2.5 0.7,0 1,0.3 1,1 0,0.9 0,1.7 0,2.6 0,0.8 0.4,1.2 1.2,1.1 1.3,-0.1 2.7,-0.1 4,-0.2 0.7,0 1,-0.4 1,-1 0,-1.2 0,-2.5 0,-3.7 -0.2,-3.1 -2.1,-5 -5.2,-5 -1.7,0 -3.5,0 -5.2,0 -3.7,0 -5.6,1.9 -5.6,5.6 -0.1,3.3 -0.1,6.4 -0.1,9.6 z"
   id="path3446"
   inkscape:connector-curvature="0"
   style="fill:#ffffff" />
	<g
   id="g3448">
		<path
   class="st1"
   d="m 187.1,113.8 c 0,-1.6 0,-3.2 0,-4.7 0,1.6 0,3.2 0,4.7 0,2.1 0,4.1 0,6.2 0,-2.1 0,-4.1 0,-6.2 z"
   id="path3450"
   inkscape:connector-curvature="0"
   style="fill:#ffffff" />
		<path
   class="st1"
   d="m 193.2,106.7 c 0,-3.2 -2.1,-5.1 -5.3,-5.1 -3.1,0 -6.2,0 -9.3,0 -1.1,0 -1.4,0.4 -1.4,1.5 0,4.6 0,9.2 0,13.8 0,4.6 0,9.2 0,13.8 0,1.1 0.4,1.5 1.5,1.4 1.2,-0.1 2.5,0 3.7,0 0.8,0 1.1,-0.3 1.1,-1.1 0,-1.1 0.1,-2.1 0,-3.2 -0.1,-1.1 0.4,-1.4 1.4,-1.3 1.1,0.1 2.2,0 3.3,0 3.2,-0.2 5,-2 5.1,-5.2 0,-5 0,-9.8 -0.1,-14.6 z m -7.2,14.4 c -2.6,0.1 -2.6,0.1 -2.6,-2.4 0,-3.6 0,-7.2 0,-10.8 0,-0.9 0.3,-1.3 1.2,-1.2 2.9,0 2.4,-0.2 2.4,2.4 0,1.6 0,3.2 0,4.7 0,2.1 0,4.1 0,6.2 0.2,0.8 -0.2,1.1 -1,1.1 z"
   id="path3452"
   inkscape:connector-curvature="0"
   style="fill:#ffffff" />
	</g>
	<g
   id="g3454">
		<path
   class="st1"
   d="m 130.9,136.5 c 0.2,0 0.4,0 0.6,-0.1 0.2,0 0.4,0 0.7,0 0.2,0 0.5,0 0.7,0 0.2,0 0.4,0 0.6,0 0.8,0 1.4,0.1 1.9,0.3 0.5,0.2 1,0.5 1.3,0.9 0.3,0.4 0.6,0.8 0.7,1.4 0.2,0.5 0.2,1.1 0.2,1.8 0,0.6 -0.1,1.1 -0.2,1.7 -0.1,0.5 -0.4,1 -0.7,1.4 -0.3,0.4 -0.8,0.8 -1.4,1 -0.6,0.2 -1.3,0.4 -2.1,0.4 -0.1,0 -0.3,0 -0.5,0 -0.2,0 -0.4,0 -0.7,0 -0.2,0 -0.5,0 -0.7,0 -0.2,0 -0.4,0 -0.5,0 l 0,-8.8 z m 2.6,1.4 c -0.2,0 -0.4,0 -0.5,0 -0.2,0 -0.3,0 -0.4,0 l 0,5.7 c 0,0 0.1,0 0.2,0 0.1,0 0.2,0 0.3,0 0.1,0 0.2,0 0.3,0 0.1,0 0.1,0 0.2,0 0.5,0 0.9,-0.1 1.2,-0.3 0.3,-0.2 0.6,-0.4 0.7,-0.7 0.2,-0.3 0.3,-0.6 0.4,-1 0.1,-0.4 0.1,-0.7 0.1,-1.1 0,-0.3 0,-0.7 -0.1,-1 -0.1,-0.3 -0.2,-0.6 -0.4,-0.9 -0.2,-0.3 -0.4,-0.5 -0.7,-0.7 -0.4,0.1 -0.8,0 -1.3,0 z"
   id="path3456"
   inkscape:connector-curvature="0"
   style="fill:#ffffff" />
		<path
   class="st1"
   d="m 141.4,136.5 1.7,0 0,8.6 -1.7,0 0,-8.6 z"
   id="path3458"
   inkscape:connector-curvature="0"
   style="fill:#ffffff" />
		<path
   class="st1"
   d="m 150.2,140.6 3.2,0 0,3.8 c -0.3,0.3 -0.8,0.5 -1.2,0.6 -0.5,0.1 -0.9,0.2 -1.4,0.2 -0.5,0 -1.1,-0.1 -1.5,-0.3 -0.5,-0.2 -0.9,-0.4 -1.2,-0.8 -0.3,-0.4 -0.6,-0.8 -0.8,-1.4 -0.2,-0.6 -0.3,-1.2 -0.3,-2 0,-0.8 0.1,-1.5 0.3,-2.1 0.2,-0.6 0.5,-1 0.9,-1.4 0.4,-0.4 0.8,-0.6 1.3,-0.8 0.5,-0.2 1,-0.2 1.4,-0.2 0.4,0 0.9,0 1.3,0.1 0.4,0.1 0.7,0.2 0.9,0.2 l -0.3,1.4 c -0.2,-0.1 -0.4,-0.1 -0.7,-0.2 -0.3,0 -0.6,-0.1 -1,-0.1 -0.4,0 -0.7,0.1 -1,0.2 -0.3,0.1 -0.5,0.3 -0.8,0.5 -0.2,0.2 -0.4,0.5 -0.5,0.9 -0.1,0.4 -0.2,0.8 -0.2,1.4 0,0.5 0.1,1 0.2,1.3 0.1,0.4 0.3,0.7 0.5,0.9 0.2,0.2 0.4,0.4 0.7,0.5 0.3,0.1 0.6,0.2 0.9,0.2 0.2,0 0.4,0 0.6,-0.1 0.2,-0.1 0.4,-0.1 0.5,-0.2 l 0,-1.6 -1.8,-0.2 0,-0.8 z"
   id="path3460"
   inkscape:connector-curvature="0"
   style="fill:#ffffff" />
		<path
   class="st1"
   d="m 157.3,136.5 1.7,0 0,8.6 -1.7,0 0,-8.6 z"
   id="path3462"
   inkscape:connector-curvature="0"
   style="fill:#ffffff" />
		<path
   class="st1"
   d="m 169.1,138 -2.5,0 0,7.1 -1.6,0 0,-7.1 -2.5,0 0,-1.5 6.7,0 0,1.5 z"
   id="path3464"
   inkscape:connector-curvature="0"
   style="fill:#ffffff" />
		<path
   class="st1"
   d="m 175.7,143.2 -2.6,0 -0.6,1.9 -1.7,0 3.1,-8.6 1.2,0 3.1,8.6 -1.8,0 -0.7,-1.9 z m -2.2,-1.4 1.8,0 -0.6,-1.9 -0.3,-1.3 -0.1,0 -0.3,1.4 -0.5,1.8 z"
   id="path3466"
   inkscape:connector-curvature="0"
   style="fill:#ffffff" />
		<path
   class="st1"
   d="m 186.8,145.1 -5.4,0 0,-8.6 1.7,0 0,7.1 3.7,0 0,1.5 z"
   id="path3468"
   inkscape:connector-curvature="0"
   style="fill:#ffffff" />
	</g>
	<g
   id="g3470">
		<path
   class="st1"
   d="m 79.4,111.7 c -0.1,0 -0.2,0 -0.3,0 0.1,-0.1 0.1,-0.2 0.1,-0.3 0.1,0 0.2,0 0.2,0 l 0,-0.7 c 0,-2.2 -1.4,-3.4 -3.6,-3.3 l -4.7,0.9 c 0,-2.4 0,-4 0,-4 0.4,-0.4 0.4,-0.8 0.4,-1.1 0,-0.4 -0.4,-0.7 -0.7,-1 -1.3,-0.8 -8.2,-1.4 -15.8,-1.4 0,0 -0.1,0 -0.1,0 0,0 0,0 0,0 0,0 0,0 -0.1,0 -1.3,0 -2.5,0 -3.7,0.1 0,0 -0.1,0.1 -0.1,0.1 0,0 0,0 0,0 0,0 0,0 0,0 0,0 0.1,0 0.1,0.1 0,0.1 0.1,0.2 0.1,0.3 0,0.1 -0.1,0.2 -0.2,0.2 -0.1,0 -0.2,-0.1 -0.3,-0.1 0,0 0,-0.2 0,-0.2 0.1,-0.1 0.2,-0.1 0.2,-0.2 0,0 0,0 0,0 0,0 0,0 0,0 -0.1,0 -0.1,-0.1 -0.2,-0.1 0,0 0,0 0,0 -5.8,0.2 -10.1,0.8 -11.2,1.2 -0.5,0.2 -0.9,0.5 -0.9,1 0,0.3 0.1,0.7 0.5,1.2 l 0,22 c 0,0 0.1,0 0.1,0 0,0.1 -0.1,0.2 -0.1,0.2 l 0,2.7 c 0,0 0,0.2 0,0.2 0,0.7 1.5,1.4 3.9,2.1 0,-0.1 -0.1,-0.2 0,-0.2 0.1,0 0.2,0 0.2,0.1 0,0 0,0 0,0.1 0.1,0.1 0.2,0.2 0.1,0.2 3,0.8 7.3,1.3 11.9,1.3 8.7,0 15.8,-1.9 15.8,-3.5 l 0,-2.9 4.6,0.6 c 2.4,0 3.6,-1.2 3.6,-3.8 l 0.2,-11.8 c 0,0 0,0 0,0 z m -0.5,8.7 c 0.1,0 0.2,0 0.3,0.1 0,0 0,0.2 0,0.2 -0.1,0 -0.2,0 -0.3,0 -0.1,-0.1 -0.1,-0.2 0,-0.3 z m -3.5,-11.9 c 0,0 0,0 0.1,0.1 0,0.1 0.1,0.2 0.1,0.3 0,0.1 -0.1,0.1 -0.1,0.2 0,0 -0.2,0 -0.2,0 0,0 0,-0.1 0,-0.2 0,-0.1 0,-0.1 0,-0.2 0,-0.1 0,-0.1 0,-0.2 0,-0.1 0.1,-0.1 0.1,0 z m -7.5,-5.4 c 0.1,0 0.2,0 0.3,0 0,0.1 0,0.2 -0.1,0.4 -0.2,-0.1 -0.3,-0.1 -0.4,-0.1 0,-0.2 0.1,-0.3 0.2,-0.3 z m -10,-1.1 c 0.1,0 0.2,0 0.1,0.2 0,0 -0.1,0.1 -0.2,0.1 0,0 -0.1,0 -0.1,0 0.1,-0.1 0.1,-0.2 0.2,-0.3 z m -5.2,1.9 c 0.1,0 0.2,0 0.3,0 0,0 0,0 0.1,0.1 -0.1,0.1 -0.1,0.2 -0.2,0.2 -0.2,0 -0.3,-0.1 -0.2,-0.3 z m -4.2,-0.2 c 0,-0.1 0.2,-0.1 0.3,-0.2 0.1,0.1 0.1,0.2 0.2,0.3 0,0.1 -0.1,0.1 -0.2,0.2 -0.1,-0.1 -0.4,0 -0.3,-0.3 z m -8.6,-0.1 c 0,0 0,0 0,0 2.3,0.6 8.6,1.3 15.6,1.3 4,0 7.7,-0.2 10.5,-0.5 0,-0.1 0.1,-0.2 0.1,-0.2 0.1,0 0.1,0 0.2,0.1 0,0 0,0.1 0,0.1 2,-0.2 3.5,-0.5 4.4,-0.7 0,0 0,0 0,0 0,0 0,0 0,0.1 0,0.8 -6.8,1.8 -15.2,1.8 -8.5,-0.1 -15.6,-1.1 -15.6,-2 0,0 0,0 0,0 z m 27.5,4.2 c 0,0 0,0.2 -0.1,0.2 -0.1,0 -0.2,0 -0.3,-0.1 0,-0.1 0,-0.1 0.1,-0.3 0.1,0.1 0.2,0.2 0.3,0.2 z m -0.7,6.8 c 0.1,0 0.2,0 0.3,0.1 0,0 0,0.1 0,0.2 -0.1,0 -0.2,-0.1 -0.3,-0.1 0,-0.1 0,-0.2 0,-0.2 z m -3.3,9.6 c -0.1,-0.1 -0.2,-0.2 0,-0.3 0.1,-0.1 0.3,-0.1 0.4,0 0.1,0.1 0.1,0.3 0.1,0.4 0,0 -0.1,0.1 -0.2,0.2 -0.1,0 -0.1,0 -0.2,-0.1 0,0 0,0 0,0 0,-0.1 0,-0.2 -0.1,-0.2 z M 63.7,113 c -0.1,0 -0.1,-0.1 -0.1,-0.2 0,0 0,0 -0.1,0 0.1,-0.1 0.1,-0.2 0.2,-0.2 0.1,0.1 0.3,0.1 0.4,0.2 0,0 0,0.2 0,0.2 -0.2,0 -0.3,0 -0.4,0 z m -5.9,-6.2 c -0.1,0 -0.2,0 -0.3,0 0,0 0,-0.2 0,-0.3 0.1,0 0.3,0.1 0.3,0.1 0,0 0,0.1 0,0.2 z M 56,105.9 c 0.1,0 0.2,0 0.3,0.1 0.1,0.2 0.1,0.6 0,0.7 -0.2,0.1 -0.2,0.1 -0.4,-0.2 -0.1,-0.2 -0.1,-0.5 0.1,-0.6 z m -0.2,16 c -0.2,0.1 -0.3,-0.1 -0.4,-0.1 0,-0.1 0.1,-0.2 0.1,-0.3 0.2,0.1 0.3,0.1 0.4,0.2 0.1,0 0,0.1 -0.1,0.2 z m 0.5,-7.1 c 0.1,0 0.2,0 0.4,0 0,0.1 0,0.3 -0.1,0.3 -0.1,0 -0.2,0 -0.4,0 0,-0.2 0.1,-0.3 0.1,-0.3 z m -2.8,-5.2 c 0,0 0,-0.1 0,-0.2 0.1,0 0.2,0 0.2,0.1 0,0 0,0.1 0,0.3 -0.1,-0.2 -0.2,-0.2 -0.2,-0.2 z m 0.2,8.2 c -0.2,-0.1 -0.4,-0.1 -0.3,-0.3 0,-0.1 0.2,-0.1 0.2,-0.1 0.2,0.1 0.1,0.3 0.1,0.4 z m -3.3,-11.9 c -0.1,0.1 -0.1,0.1 -0.3,0.2 0,-0.1 0,-0.2 0,-0.3 0.1,0 0.2,0 0.3,0.1 z M 40,125 c -0.1,0 -0.2,0 -0.3,0 0,-0.1 0,-0.2 0.1,-0.2 0.1,0 0.2,0 0.4,0 -0.1,0.1 -0.2,0.2 -0.2,0.2 z m 0.5,-4.6 c -0.1,-0.1 -0.2,-0.1 -0.3,-0.1 0,-0.1 0,-0.1 0,-0.2 0.1,0 0.2,0 0.3,0 0.1,0 0,0.2 0,0.3 z m 0.2,-5.8 c -0.1,0 -0.2,-0.1 -0.4,-0.1 0.1,-0.1 0.1,-0.2 0.2,-0.2 0,0 0.2,0 0.2,0.1 0,-0.1 0,0.1 0,0.2 z m 0.6,10.1 c 0,0 -0.1,0 -0.2,0 0,-0.1 0.1,-0.2 0.1,-0.2 0.1,0 0.1,0 0.2,0 -0.1,0.1 -0.1,0.2 -0.1,0.2 z m 0.3,-4.7 c -0.1,0 -0.2,0 -0.3,0 0.1,-0.1 0.1,-0.2 0.1,-0.3 0,0 0.2,0 0.2,0 0,0.1 0,0.2 0,0.3 z m -0.1,-13.8 c 0.1,-0.1 0.1,-0.1 0.1,-0.2 0,0 0.1,0 0.1,0 0,0.1 0,0.1 -0.1,0.2 0.1,0.1 0,0 -0.1,0 z m 0.2,6.2 c 0.1,-0.2 0.1,-0.3 0.1,-0.3 0,0 0.2,0 0.2,0.1 0,0.1 0,0.2 -0.1,0.3 0,-0.1 -0.1,-0.1 -0.2,-0.1 z m 0.4,2.9 c 0,0 0.2,0 0.2,0 0,0 0,0.1 0.1,0.1 -0.1,0.1 -0.1,0.2 -0.2,0.3 0,0 -0.1,0 -0.2,0 0,-0.2 0,-0.3 0.1,-0.4 z m 0.3,13.4 c 0,0 -0.1,0.1 0,0 -0.2,0 -0.3,-0.1 -0.4,-0.2 0,0 0,-0.2 0,-0.2 0.1,0 0.3,0.1 0.4,0.1 0.1,0.1 0,0.2 0,0.3 z m 7,-4.8 c 0,0 -0.1,0 -0.1,0 l 0,8 c -2.2,-0.2 -5.5,-0.8 -6.5,-1.3 l 0,-12.5 c 0,0 0,0 0,0 0,-0.1 0,-0.2 0,-0.3 0,0 0,0 0,0 l 0,-11.8 c 2.2,0.3 4.4,0.6 6.5,0.7 l 0,16.8 c 0.1,0 0.1,0.1 0.2,0.1 -0.1,0 -0.1,0.2 -0.1,0.3 z m 0.3,2.9 c 0,0 -0.2,0 -0.2,0 0,-0.1 0,-0.2 0,-0.4 0,0 0.1,0 0.3,0 0,0.2 0,0.3 -0.1,0.4 z m 1.5,-2.8 c 0,-0.1 -0.1,-0.2 -0.1,-0.2 l 0,8.2 c 0,0 -0.9,-0.1 -0.9,-0.1 l 0,-25.2 c 0,0 0.9,0 0.9,0 l 0,17.1 c 0,0 0.1,-0.1 0.1,-0.1 0.1,0.1 0.1,0.1 0.2,0.2 -0.1,0 -0.2,0.1 -0.2,0.1 z m 0.2,-9.3 c -0.1,0 -0.1,0 -0.2,0 0,0 0,-0.1 0,-0.1 0.1,0 0.1,0 0.2,0 0,0 0,0 0,0.1 0,-0.1 0,0 0,0 z m 1.1,0.9 c -0.1,0 -0.2,0 -0.2,-0.1 0,-0.1 0,-0.2 0,-0.3 0,0 0.1,0 0.2,0 0.1,0.3 0.1,0.3 0,0.4 z m 0.4,-1.5 c 0,0.1 -0.1,0.1 -0.1,0.2 -0.1,0 -0.3,0 -0.4,0 -0.1,0 -0.1,-0.2 -0.1,-0.3 0,-0.1 0,-0.2 0.2,-0.2 0,0 0.1,-0.1 0.1,-0.2 0,-0.2 0.1,-0.2 0.2,-0.1 0,0.1 0.2,0.5 0.1,0.6 z m 0.1,12.1 c 0,-0.1 0.1,-0.2 0.1,-0.3 0,0 0.1,0 0.2,0 0,0.1 -0.1,0.2 -0.1,0.3 0,0 -0.1,0 -0.2,0 z m 0.3,1.6 c 0.1,0 0.2,0 0.2,0.1 0,0 0,0.1 0,0.3 -0.1,-0.1 -0.2,-0.1 -0.3,-0.1 0.1,-0.2 0.1,-0.3 0.1,-0.3 z m 0.3,1.5 c 0,0 0,0 0,0 0.1,0.1 0.2,0.2 0.2,0.3 0,0 0,0 0,0.1 -0.1,0 -0.2,0 -0.3,-0.1 0,-0.1 0,-0.2 0.1,-0.3 z m 0.3,2.7 c 0,0 -0.2,0 -0.2,-0.1 0,-0.1 0,-0.2 0,-0.3 0.1,0 0.2,0 0.3,0.1 0,0.1 -0.1,0.2 -0.1,0.3 z m 0.5,-8.2 c 0,-0.1 0,-0.3 0.2,-0.3 0.1,0.1 0.1,0.3 0.2,0.4 -0.2,0 -0.4,0.1 -0.4,-0.1 z m 0.7,-7.6 c 0.1,0 0.2,0 0.2,0 0,0 0,0.1 0.1,0.3 -0.2,-0.1 -0.2,-0.1 -0.3,-0.1 -0.1,-0.1 0,-0.2 0,-0.2 z m 0,7.7 c -0.1,-0.1 0,-0.3 0.1,-0.3 0,0 0.2,0 0.2,0.1 0,0.1 0,0.2 0,0.3 -0.1,0 -0.3,0 -0.3,-0.1 z m 0.4,7.4 c -0.3,-0.1 -0.1,-0.3 -0.1,-0.4 0.2,0 0.3,0.1 0.3,0.3 0,0 -0.2,0.1 -0.2,0.1 z m 0.6,-7.2 c -0.1,0 -0.2,0 -0.3,0 0.1,-0.1 0.1,-0.3 0.1,-0.3 0.1,0 0.2,0 0.3,0 -0.1,0.2 0,0.3 -0.1,0.3 z m -0.2,-4.9 c 0,-0.1 0,-0.3 0,-0.4 0.1,-0.1 0.2,-0.1 0.3,0.1 0.1,0.2 0,0.3 -0.1,0.5 0,-0.1 -0.2,-0.2 -0.2,-0.2 z m 0.7,4.4 c -0.2,0 -0.2,-0.1 -0.3,-0.1 0,-0.1 0.1,-0.2 0.1,-0.3 0,0 0.2,0 0.2,0.1 0.1,0.1 0.1,0.2 0,0.3 z m 0.9,-13.7 c 0,-0.1 0,-0.2 0.1,-0.2 0.2,-0.1 0.2,0.1 0.3,0.2 -0.2,0.1 -0.4,0.2 -0.4,0 z m 0.6,3.9 c 0.1,-0.1 0.1,-0.3 0.2,-0.3 0.1,0 0.2,0 0.3,0 0,0.1 0,0.2 -0.1,0.3 -0.1,0.1 -0.2,0 -0.4,0 z m 0.6,17.1 c -0.1,0 -0.2,0 -0.3,-0.1 -0.2,-0.2 0.1,-0.2 0.1,-0.3 0.1,0 0.2,0 0.3,0.1 -0.1,0.1 -0.1,0.2 -0.1,0.3 z m 0.4,-21.3 c -0.2,0 -0.3,-0.1 -0.3,-0.3 0,0 0.1,-0.1 0.2,-0.1 0.2,0.1 0.3,0.2 0.1,0.4 z m 0.6,20.9 c -0.2,-0.1 -0.3,-0.1 -0.3,-0.1 -0.1,-0.1 0,-0.2 0.1,-0.3 0.1,0 0.2,0 0.2,0 0.1,0.1 0,0.2 0,0.4 z m 0.2,-18.6 c 0.1,0.1 0.2,0.1 0.3,0.2 -0.2,0.1 -0.3,0.2 -0.3,0 0,-0.1 0,-0.2 0,-0.2 z m 0.4,1.8 c -0.1,0 -0.3,0 -0.3,-0.1 -0.1,-0.1 -0.1,-0.3 0.1,-0.4 0,0 0.2,0 0.2,0.1 0,0.1 0.2,0.3 0,0.4 z m 0.4,15 c 0,0 -0.1,0 -0.2,0 0.1,-0.2 0.1,-0.3 0.2,-0.4 0,0 0.1,0 0.2,0 -0.1,0.2 -0.1,0.3 -0.2,0.4 z m 0,-18.7 c -0.1,0 -0.3,0 -0.3,-0.1 -0.1,-0.1 0,-0.3 0,-0.4 0.2,0 0.3,0 0.4,0.1 0.2,0.1 0.1,0.3 -0.1,0.4 z m 0.9,13.4 c 0,0 -0.1,-0.1 -0.2,-0.1 0,-0.1 0,-0.2 0.1,-0.2 0.1,0 0.2,0 0.3,0.1 0,0 0,0.1 0,0.1 0,0 -0.1,0 -0.2,0.1 z m 0.3,-16 c -0.1,-0.1 -0.2,-0.1 -0.2,-0.1 0,-0.1 0,-0.2 0,-0.2 0.1,0 0.2,0 0.2,0.1 0,0 0,0.1 0,0.2 z m 0.8,7.5 c -0.1,0.1 -0.3,0 -0.4,-0.1 0,-0.1 0,-0.2 0.1,-0.3 0.2,-0.1 0.3,-0.1 0.3,0 0.1,0.2 0.1,0.3 0,0.4 z m 0.2,-5.9 c 0.1,0 0.3,0.1 0.3,0.1 0,0.1 0,0.2 -0.1,0.3 0,0 -0.1,0 -0.1,0 0,-0.1 0,-0.3 -0.1,-0.4 z m 0.4,18.6 c -0.1,0 -0.3,-0.3 -0.2,-0.4 0,-0.2 0.1,-0.2 0.3,-0.2 0,-0.1 0.1,-0.2 0.1,-0.3 0,0 0.1,0 0.1,0 0,0.1 0,0.2 0,0.3 0,0.1 -0.1,0.2 -0.1,0.2 0,0.3 0,0.4 -0.2,0.4 z m 0.4,3.9 c 0,0 -0.1,0 -0.1,0 0,-0.1 0,-0.2 0,-0.3 0.1,0 0.2,0 0.3,0.1 -0.1,0 -0.2,0.1 -0.2,0.2 z m 0.7,-0.9 c -0.1,0.1 -0.5,0.1 -0.5,0 -0.2,-0.2 0.1,-0.3 0.1,-0.4 0.1,-0.1 0.5,0 0.5,0.1 0,0.1 0,0.2 -0.1,0.3 z m 0.1,-1.8 c 0,0 -0.1,0 -0.2,0 0,-0.1 0,-0.3 0.1,-0.4 0,0 0.1,0 0.2,0 0,0.2 0,0.3 -0.1,0.4 z m 0.4,0 c 0,0 -0.2,0 -0.2,0 0,-0.1 0,-0.1 0,-0.2 0,0 0,-0.1 0,-0.1 0,-0.1 0,-0.2 0,-0.3 0.1,0 0.2,0.1 0.4,0.1 -0.1,0.2 -0.1,0.4 -0.2,0.5 z m -0.1,-2.5 c 0,-0.1 -0.1,-0.1 -0.1,-0.2 0.1,-0.2 0.2,-0.1 0.3,-0.1 0,0 0,0.1 0.1,0.1 -0.1,0.1 -0.2,0.2 -0.3,0.2 z m 0.4,-20.8 c -0.1,0 -0.2,-0.1 -0.3,-0.1 0,0 0,-0.1 0.1,-0.2 0,0 0.1,0 0.2,0 0,0.1 0,0.1 0,0.3 z m 0.4,5.3 c 0,0.2 -0.1,0.3 -0.3,0.3 0,-0.1 0,-0.3 -0.1,-0.4 0.3,-0.1 0.4,-0.1 0.4,0.1 z m 0,21 c -0.1,0 -0.2,0 -0.3,-0.1 0,0 0,-0.2 0,-0.2 0.1,0 0.2,0 0.3,0 0.1,0.2 0,0.2 0,0.3 z m 0.4,-5.3 c 0,0 -0.1,0 -0.2,0 0,-0.1 0,-0.2 0.1,-0.2 0.1,0 0.2,0 0.2,0 0,0 0,0.1 -0.1,0.2 z m 0.2,-11.3 c 0,0 -0.1,-0.1 -0.1,-0.1 0,0 0,0 0,0 0,0 0,0 0,0 0,-0.1 0,-0.1 0,-0.2 0.1,0 0.2,0 0.3,0 0,0 -0.1,0 -0.1,0 0,0.1 -0.1,0.1 -0.1,0.2 -0.1,0 0,0 0,0.1 z m 0.5,16.7 c 0,0 -0.1,0 -0.1,0 0,-0.1 -0.1,-0.1 -0.1,-0.2 0,-0.1 0.1,-0.1 0.1,-0.2 0.1,0.1 0.1,0.1 0.1,0.2 0.1,0 0.1,0.1 0,0.2 z m 0.1,-2 c 0,0 0,-0.1 0,-0.1 0.1,0 0.2,0 0.3,-0.1 0,0.1 0,0.1 0,0.2 -0.2,0 -0.2,0 -0.3,0 z m 0.5,-19.8 c -0.1,0.1 -0.4,0 -0.4,-0.2 0,-0.1 0,-0.3 0.1,-0.3 0.1,-0.1 0.2,0 0.3,0 0,0.2 0.3,0.3 0,0.5 z m 2,19.9 c 0,0 -0.6,0.3 -1.3,0.5 l 0,-24.8 c 0.7,-0.2 1,-0.3 1.3,-0.4 l 0,24.7 z m 0.1,-22.8 c 0.1,0.1 0.4,0 0.3,0.3 0,0 -0.1,0.1 -0.2,0.1 -0.2,-0.1 -0.1,-0.2 -0.1,-0.4 z m 0.5,14 c 0,0 -0.1,0 -0.2,0 0,-0.1 0,-0.2 0,-0.4 0.1,0 0.2,0 0.3,0.1 0,0 -0.1,0.2 -0.1,0.3 z m 0.7,2.5 c -0.1,0 -0.2,-0.2 -0.2,-0.3 0,-0.1 0.1,-0.2 0.2,-0.2 0,-0.1 -0.1,-0.2 -0.1,-0.3 0.1,0 0.3,0 0.3,0.1 0,0 0,0.2 -0.1,0.3 0,0.1 0.1,0.2 0.1,0.3 0,0 -0.1,0.1 -0.2,0.1 z m 0.4,4.8 c 0,-0.1 -0.1,-0.2 -0.1,-0.2 0,0 0.1,-0.1 0.1,-0.1 0.1,0.1 0.1,0.1 0.1,0.2 0,0 -0.1,0.1 -0.1,0.1 z m 2.5,-1.8 c -0.2,-0.1 -0.3,-0.1 -0.3,-0.1 -0.1,-0.1 -0.1,-0.3 0.1,-0.4 0.1,0 0.3,0 0.3,0.1 0,0.1 -0.1,0.2 -0.1,0.4 z m 1.6,0.7 c -0.2,-0.1 -0.3,-0.1 -0.4,-0.2 0,0 0,-0.2 0,-0.2 0.1,0 0.2,0.1 0.3,0.1 0.2,0 0.1,0.1 0.1,0.3 z m 1.7,-3.9 c 0,0.6 -0.4,1.2 -1,1.2 l -4.7,-0.6 c 0,-3.7 0,-8.8 0,-12.8 l 4.7,-1 c 0.6,0.1 1,0.6 1,1.2 l 0,12 z m 0,-14.9 c 0,0 -0.1,0.1 0,0 -0.2,0 -0.3,0 -0.4,-0.1 0,-0.1 0,-0.2 0,-0.3 0.1,-0.1 0.3,0 0.3,0.1 0.1,0.1 0.1,0.2 0.1,0.3 z m 0.8,16.2 c -0.1,-0.1 -0.2,-0.1 -0.2,-0.1 0,-0.1 0,-0.2 0.1,-0.3 0,0 0.1,0 0.1,0 0,0.1 0,0.2 0,0.4 z m 0.6,-4.7 c -0.1,-0.1 0,-0.2 0.2,-0.2 0.1,0 0.1,0.1 0.1,0.2 0,0 0,0.1 0,0.1 -0.1,-0.1 -0.3,0 -0.3,-0.1 z m 0.2,-1.8 c -0.1,-0.1 0,-0.2 0.1,-0.3 0,0 0.2,0 0.3,0.1 -0.1,0.1 -0.1,0.3 -0.2,0.3 0,0 -0.2,0 -0.2,-0.1 z m 0.8,4.8 c -0.1,-0.1 -0.3,-0.1 -0.5,-0.2 0,-0.1 0,-0.2 0.1,-0.3 0.1,-0.1 0.4,-0.1 0.4,0.1 0.1,0.1 0,0.3 0,0.4 z"
   id="path3472"
   inkscape:connector-curvature="0"
   style="fill:#ffffff" />
		<g
   id="g3474">
			<path
   class="st1"
   d="m 55.4,91 c 0,0 0,0 0,0 0.7,0 1.2,-0.7 1.2,-1.4 l 0,-8.4 c 0,-0.7 -0.6,-1.6 -1.2,-1.6 0,0 0,0 0,0 -0.7,0 -1.2,0.8 -1.2,1.5 l 0,8.4 c 0,0.6 0.6,1.5 1.2,1.5 z"
   id="path3476"
   inkscape:connector-curvature="0"
   style="fill:#ffffff" />
			<path
   class="st1"
   d="m 61.9,93.2 c 0.2,0.1 0.4,0.2 0.7,0.2 0.4,0 0.8,-0.2 1.1,-0.6 l 4.6,-7.1 c 0.4,-0.6 0.2,-1.4 -0.4,-1.7 -0.6,-0.4 -1.4,-0.2 -1.7,0.4 l -4.6,7.1 c -0.4,0.6 -0.2,1.4 0.3,1.7 z m 4.4,-7.8 c 0,0.1 0.1,0.1 0.1,0.2 -0.1,0.1 -0.2,0.1 -0.3,0.2 0,-0.1 0,-0.1 0,-0.2 0.1,-0.1 0.1,-0.2 0.2,-0.2 z m -1.2,1.3 c -0.1,0.2 -0.2,0.3 -0.3,0.1 0,0 0,-0.1 0,-0.2 0.1,0 0.2,0.1 0.3,0.1 z m -0.9,2.4 c 0,0 0.1,0.1 0.1,0.1 -0.1,0.1 -0.1,0.1 -0.2,0.2 0,-0.1 -0.1,-0.2 -0.1,-0.2 0,0 0.1,0 0.2,-0.1 z m -1.9,3.5 c 0.2,0 0.3,0 0.4,0.1 0.1,0.2 -0.1,0.2 -0.2,0.3 -0.1,0 -0.2,0 -0.3,0 0,-0.2 0,-0.3 0.1,-0.4 z"
   id="path3478"
   inkscape:connector-curvature="0"
   style="fill:#ffffff" />
			<path
   class="st1"
   d="m 44.8,84.4 c -0.4,-0.6 -1.1,-0.7 -1.7,-0.4 -0.6,0.4 -0.7,1.1 -0.4,1.7 l 4.6,7.1 c 0.2,0.4 0.6,0.6 1.1,0.6 0.2,0 0.5,-0.1 0.7,-0.2 0.6,-0.4 0.7,-1.1 0.4,-1.7 l -4.7,-7.1 z"
   id="path3480"
   inkscape:connector-curvature="0"
   style="fill:#ffffff" />
			<path
   class="st1"
   d="m 76.5,93.8 c 0.6,-0.4 0.8,-1.1 0.4,-1.7 -0.4,-0.6 -1.1,-0.8 -1.7,-0.4 L 68,96 c -0.6,0.4 -0.8,1.1 -0.4,1.7 0.2,0.4 0.6,0.6 1.1,0.6 0.2,0 0.4,-0.1 0.6,-0.2 l 7.2,-4.3 z m -4.3,0.3 c 0.1,0 0.3,0 0.3,0 0.1,0.1 0,0.3 0,0.4 -0.1,0 -0.2,0 -0.4,-0.1 0.1,-0.1 0.1,-0.3 0.1,-0.3 z m -1,0.5 c 0,0 0,0.1 0,0.1 -0.1,0 -0.2,0.1 -0.3,0.1 0,-0.1 -0.1,-0.2 -0.1,-0.3 0.2,-0.2 0.3,0.1 0.4,0.1 z"
   id="path3482"
   inkscape:connector-curvature="0"
   style="fill:#ffffff" />
			<path
   class="st1"
   d="m 34.4,93.8 7.3,4.3 c 0.2,0.1 0.4,0.2 0.6,0.2 0.4,0 0.8,-0.2 1.1,-0.6 0.4,-0.6 0.2,-1.4 -0.4,-1.7 l -7.3,-4.3 c -0.6,-0.4 -1.4,-0.2 -1.7,0.4 -0.4,0.5 -0.2,1.3 0.4,1.7 z"
   id="path3484"
   inkscape:connector-curvature="0"
   style="fill:#ffffff" />
		</g>
	</g>
	<g
   id="g3486">
		<path
   class="st1"
   d="m 100.3,101.5 c -4.3,0 -8.6,0 -12.9,0 -0.9,0 -1.2,0.4 -1.3,1.2 -0.1,1 -0.1,2 -0.2,3 -0.1,0.8 0.3,1.1 1,1.1 0.7,0 1.3,0 2,0 1.7,0 1.7,0 1.7,1.6 0,3.7 0,7.4 0,11 0,3.7 0,7.4 0,11.2 0,1 0.3,1.4 1.4,1.4 1.1,-0.1 2.3,-0.1 3.4,0 1,0.1 1.4,-0.3 1.4,-1.3 -0.1,-3.8 0,-7.5 0,-11.3 0,-3.8 0,-7.6 0,-11.4 0,-0.9 0.3,-1.2 1.2,-1.2 0.7,0 1.5,0 2.3,0 0.7,0 1.1,-0.3 1.1,-1.1 0,-0.9 0.1,-1.9 0.2,-2.8 -0.1,-1 -0.3,-1.4 -1.3,-1.4 z"
   id="path3488"
   inkscape:connector-curvature="0"
   style="fill:#ffffff" />
		<path
   class="st1"
   d="m 108.8,101.5 c -1.1,0.1 -2.3,0 -3.4,0 -0.9,0 -1.3,0.3 -1.3,1.2 0,9.3 0,18.7 0,28 0,0.9 0.4,1.2 1.2,1.2 1.2,0 2.4,-0.1 3.6,0 1.1,0.1 1.4,-0.4 1.4,-1.5 0,-4.6 0,-9.1 0,-13.7 0,-4.6 0,-9.3 0,-13.9 0,-1 -0.4,-1.4 -1.5,-1.3 z"
   id="path3490"
   inkscape:connector-curvature="0"
   style="fill:#ffffff" />
		<path
   class="st1"
   d="m 131.4,127.7 c 0,-8.3 0,-16.5 0,-24.8 0,-1.1 -0.4,-1.5 -1.4,-1.4 -1.1,0.1 -2.1,0.1 -3.2,0 -1.2,-0.1 -1.5,0.4 -1.5,1.5 0,3.4 0,6.8 0,10.2 0,0.5 -0.1,0.9 -0.1,1.4 -0.2,0.1 -0.3,0.1 -0.5,0.2 -0.3,-0.5 -0.7,-1 -0.9,-1.6 -1.2,-3 -2.3,-6 -3.6,-8.9 -1.4,-3.4 -0.7,-2.7 -4.1,-2.8 -1.5,0 -1.6,0.1 -1.6,1.6 0,5.7 0,11.4 0,17.1 0,3.5 0,7 0,10.4 0,0.9 0.3,1.3 1.2,1.3 1,-0.1 2.1,0 3.1,0 1.9,0 1.9,0 1.9,-1.8 0,-3.4 0,-6.7 0,-10.1 0,-0.4 0.1,-0.8 0.1,-1.2 0.1,0 0.2,-0.1 0.4,-0.1 0.2,0.4 0.5,0.7 0.7,1.1 1.2,3 2.4,6 3.7,9 1.5,3.8 0.6,3 4.7,3.1 0.1,0 0.2,0 0.2,0 0.7,0.1 1,-0.3 1,-1 -0.1,-1.1 -0.1,-2.1 -0.1,-3.2 z"
   id="path3492"
   inkscape:connector-curvature="0"
   style="fill:#ffffff" />
	</g>
</g>
</svg>